<?xml version="1.0"?>
<!--Icons from directory ""-->
<svg xmlns="http://www.w3.org/2000/svg" width="46" height="230" viewBox="0 0 46 230"><svg xmlns:xlink="http://www.w3.org/1999/xlink" id="behance" xml:space="preserve" height="46" viewBox="0 0 46 46" width="46" version="1.1" y="0" x="0px" enable-background="new 0 0 46 46">	<path id="behance-Behance" d="m36.496 15.737h-8.1079v-2.014h8.1086v2.014h-0.001zm-13.506 8.259c0.52316 0.81032 0.78459 1.7942 0.78459 2.9493 0 1.1945-0.29476 2.2661-0.89443 3.2127-0.3815 0.62638-0.85516 1.1555-1.4243 1.5814-0.64097 0.49262-1.3998 0.83041-2.2722 1.0109-0.87517 0.18078-1.8224 0.27211-2.8428 0.27211h-9.0684v-20.134h9.7237c2.451 0.039873 4.1886 0.74998 5.2147 2.1446 0.6157 0.85531 0.92076 1.8816 0.92076 3.0746 0 1.2309-0.30875 2.2159-0.93047 2.9642-0.34584 0.41957-0.85674 0.80122-1.5331 1.1457 1.024 0.374 1.801 0.965 2.32 1.778zm-11.073-3.17h4.2605c0.87555 0 1.5833-0.16641 2.1285-0.49909 0.54475-0.33215 0.81656-0.92257 0.81656-1.7703 0-0.93656-0.35991-1.5582-1.0815-1.8574-0.62021-0.20786-1.4138-0.31492-2.3766-0.31492h-3.7474v4.441zm7.616 5.832c0-1.0459-0.42747-1.7689-1.2807-2.1569-0.47712-0.2205-1.1503-0.3332-2.0134-0.34125h-4.3217v5.3657h4.2548c0.87412 0 1.5507-0.11443 2.0389-0.35314 0.88-0.44 1.322-1.275 1.322-2.515zm19.971-3.276c0.09795 0.65873 0.14226 1.6145 0.12428 2.8637h-10.5c0.057928 1.4494 0.55829 2.463 1.5073 3.043 0.57229 0.36374 1.2661 0.54137 2.0786 0.54137 0.85674 0 1.555-0.21659 2.0926-0.66181 0.29288-0.236 0.55122-0.56913 0.77459-0.98945h3.8489c-0.10081 0.85606-0.56424 1.7243-1.397 2.6066-1.2903 1.4024-3.0999 2.1056-5.424 2.1056-1.9199 0-3.6119-0.59305-5.0806-1.7749-1.4638-1.186-2.1989-3.1093-2.1989-5.7774 0-2.502 0.66001-4.417 1.9845-5.75 1.3293-1.3354 3.0449-2.0001 5.1596-2.0001 1.2534 0 2.3833 0.22404 3.3914 0.67445 1.0049 0.45086 1.8354 1.1604 2.4894 2.1357 0.592 0.858 0.973 1.851 1.15 2.982zm-3.788 0.376c-0.070568-1.0022-0.4052-1.7608-1.0077-2.2792-0.59756-0.51985-1.3441-0.78083-2.2348-0.78083-0.96943 0-1.718 0.27896-2.2499 0.82725-0.5355 0.54716-0.8687 1.291-1.0052 2.2329h6.4977z"/></svg><svg xmlns:xlink="http://www.w3.org/1999/xlink" id="facebook" xml:space="preserve" height="46" viewBox="0 0 46 46" width="46" version="1.1" y="46" x="0px" enable-background="new 0 0 46 46"><path d="m29.929 23.281h-4.142v14.76h-6.1365v-14.76h-2.917v-5.2168h2.917v-3.3743c0-2.4167 1.1484-6.1929 6.1929-6.1929l4.5473 0.01743v5.064h-3.3005c-0.53726 0-1.3011 0.26863-1.3011 1.4211v3.0657h4.6754l-0.535 5.216z" fill="#010101"/></svg><svg xmlns:xlink="http://www.w3.org/1999/xlink" id="instagram" xml:space="preserve" height="46" viewBox="0 0 46 46" width="46" version="1.1" y="92" x="0px" enable-background="new 0 0 46 46"><path d="m31.786 8.6769h-17.573c-3.0533 0-5.5357 2.4821-5.5357 5.5357v17.574c0 3.0544 2.4824 5.5368 5.5357 5.5368h17.574c3.0522 0 5.5357-2.4824 5.5357-5.5368v-17.575c0-3.053-2.484-5.5351-5.537-5.5351zm1.591 3.3011l0.63166-0.0019855v4.8549l-4.8396 0.016458-0.016174-4.8561 4.224-0.013zm-14.464 8.081c0.91797-1.2701 2.406-2.1021 4.089-2.1021 1.6819 0 3.1711 0.83313 4.0871 2.103 0.59448 0.82774 0.95373 1.8413 0.95373 2.9389 0 2.7803-2.2653 5.0416-5.0439 5.0416-2.7795 0-5.0425-2.2622-5.0396-5.0428 0.001-1.098 0.357-2.112 0.954-2.939zm15.617 11.727c0 1.5156-1.2327 2.7431-2.7451 2.7431h-17.573c-1.5144 0-2.7448-1.2276-2.7448-2.7431v-11.727h4.2758c-0.36918 0.90691-0.57632 1.9001-0.57632 2.9389 0 4.3183 3.513 7.8344 7.8336 7.8344 4.3203 0 7.8344-3.5161 7.8344-7.8344 0-1.0389-0.20998-2.032-0.58228-2.9389h4.2777v11.727z" fill="#010101"/></svg><svg xmlns:xlink="http://www.w3.org/1999/xlink" id="lastfm" xml:space="preserve" height="46" viewBox="0 0 46 46" width="46" version="1.1" y="138" x="0px" enable-background="new 0 0 46 46">		<path d="m19.324 27.454c-0.72462 0.65063-2.1161 1.9529-4.4327 1.9529-2.7325 0-5.3648-2.3951-5.3648-6.2274 0-4.9102 3.1467-6.4939 5.5625-6.4939 3.4848 0 4.2478 2.1026 5.1978 5.017l1.2681 3.9923c1.2667 3.872 3.6428 6.9848 10.494 6.9848 4.9109 0 8.237-1.5163 8.237-5.5079 0-3.2338-1.8223-4.9102-5.2275-5.7091l-2.5341-0.55833c-1.7427-0.3993-2.2572-1.118-2.2572-2.3159 0-1.3573 1.069-2.1552 2.8117-2.1552 1.9007 0 2.9306 0.71874 3.0893 2.4349l3.9595-0.47881c-0.31702-3.593-2.7723-5.0696-6.8113-5.0696-3.564 0-7.0488 1.3573-7.0488 5.7084 0 2.7145 1.3065 4.4307 4.5928 5.2296l2.6935 0.63819c2.0197 0.47951 2.6921 1.3179 2.6921 2.4757 0 1.4765-1.4254 2.0753-4.1182 2.0753-3.9992 0-6.0082-2.1158-6.9589-5.0301l-1.3071-3.9913c-1.6622-5.1895-3.6245-7.1058-8.8914-7.1058-4.6965 0-9.2558 3.7123-9.2558 10.019 0 6.068 4.3774 9.3409 8.9785 9.3409 3.3275 0 5.0177-1.1696 5.8426-1.769l-1.213-3.457z" fill="#060507"/></svg><svg xmlns:xlink="http://www.w3.org/1999/xlink" id="twitter" xml:space="preserve" height="46" viewBox="0 0 46 46" width="46" version="1.1" y="184" x="0px" enable-background="new 0 0 46 46">		<path d="m40 12.463c-1.2118 0.53694-2.512 0.90109-3.8781 1.0637 1.3949-0.83529 2.4626-2.1602 2.9687-3.7341-1.3084 0.77354-2.7527 1.3352-4.2916 1.6397-1.2323-1.3146-2.9852-2.1335-4.9293-2.1335-3.7299 0-6.7542 3.0243-6.7542 6.7521 0 0.52871 0.05966 1.0451 0.17489 1.5389-5.6123-0.28189-10.589-2.9708-13.92-7.0567-0.58224 0.99577-0.91346 2.156-0.91346 3.3946 0 2.3433 1.1933 4.4109 3.0037 5.6206-1.1069-0.037012-2.1479-0.3415-3.0592-0.84761v0.084351c0 3.2711 2.3289 6.0012 5.4169 6.6225-0.56577 0.15224-1.1624 0.2366-1.7796 0.2366-0.43613 0-0.85789-0.0432-1.2714-0.12551 0.85993 2.6848 3.3534 4.6372 6.3078 4.6907-2.3104 1.8105-5.2236 2.8864-8.3877 2.8864-0.54517 0-1.0822-0.032925-1.6109-0.092586 2.9893 1.9195 6.5382 3.0387 10.352 3.0387 12.424 0 19.215-10.291 19.215-19.215l-0.022652-0.87435c1.328-0.947 2.476-2.137 3.379-3.49z"/></svg></svg>
