<svg id="vm-logo-anim" data-name="Layer 1" xmlns="http://www.w3.org/2000/svg" viewBox="0 0 1227.101 400.896">
	<title>vm-logo-anim</title>
	<g>
		<polyline points="0.446 0.813 204.806 0.813 16.738 32.802 227.896 46.148 44.463 87.236 254.63 98.639 107.311 210.629 288.548 165.235 140.462 275.715 232.278 275.715 160.864 315.772 199.198 340.664 186.37 365.85" fill="none" stroke="#3f2f4d" stroke-linejoin="bevel"/>
		<polyline points="186.37 365.85 0.446 0.813 199.198 340.664 113.545 0.813 232.278 275.715 126.72 0.35 288.548 165.235 204.806 0.813" fill="none" stroke="#3f2f4d" stroke-linejoin="bevel"/>
		<polyline points="288.548 165.235 186.37 365.85 254.63 98.639 112.097 220.025 227.896 46.148 0.446 0.813" fill="none" stroke="#3f2f4d" stroke-linejoin="bevel"/>
	</g>
	<g>
		<polyline points="409.219 399.067 204.861 399.067 428.281 361.939 261.566 288.623 609.449 9.083 409.219 1.044 505.623 211.302 256.465 298.559 494.712 232.554 216.381 376.629" fill="none" stroke="#3f2f4d" stroke-linejoin="bevel"/>
		<polyline points="613.577 1.044 409.219 1.044 603.22 21.215 395.142 28.46 484.371 252.695 249.109 312.886 453.467 312.886 210.427 388.227 409.219 399.067" fill="none" stroke="#3f2f4d" stroke-linejoin="bevel"/>
		<polyline points="204.861 399.067 409.219 1.044 210.427 399.067 445.693 1.044 359.559 399.067" fill="none" stroke="#3f2f4d" stroke-linejoin="bevel"/>
		<polyline points="409.219 399.067 611.718 4.664 311.863 399.067 433.211 1.737 237.667 399.067 321.478 171.933" fill="none" stroke="#3f2f4d" stroke-linejoin="bevel"/>
	</g>
	<g>
		<polyline points="697.321 165.236 632.013 37.013 676.448 206.218 551.371 195.343 595.143 365.85 529.835 237.624 622.962 311.23 540.455 216.774" fill="none" stroke="#3f2f4d" stroke-linejoin="bevel"/>
		<polyline points="595.143 365.85 697.321 165.236 571.391 319.214 650.603 73.51 561.494 296.094 642.648 57.892 529.835 237.624 632.013 37.013" fill="none" stroke="#3f2f4d" stroke-linejoin="bevel"/>
	</g>
	<g>
		<polyline points="817.936 399.067 613.577 399.067 834.991 365.85 630.632 365.85 873.722 290.415 669.362 290.415 972.875 97.298 804.22 27.758 887.509 263.562 715.756 200.055 989.11 65.679 807.986 20.422 992.146 59.766 974.079 1.737 730.012 172.29 892.616 253.615" fill="none" stroke="#3f2f4d" stroke-linejoin="bevel"/>
		<polyline points="817.936 1.044 1022.296 1.044 643.875 340.056 840.373 355.366 613.577 399.067 827.262 380.903 636.015 355.366 966.844 109.044" fill="none" stroke="#3f2f4d" stroke-linejoin="bevel"/>
		<polyline points="613.577 399.067 817.936 1.044 750.335 399.067 992.146 1.737 817.936 399.067 1022.296 1.044" fill="none" stroke="#3f2f4d" stroke-linejoin="bevel"/>
	</g>
	<g>
		<polyline points="1226.656 399.067 1022.296 399.067 1200.915 348.735 938.551 235.391 1055.096 63.612 960.492 278.273 1077.883 108.168 977.441 311.4 1212.873 372.117" fill="none" stroke="#3f2f4d" stroke-miterlimit="10"/>
		<polyline points="1226.656 399.067 1011.524 373.41 1185.105 317.821 987.989 332.015 1099.716 150.859 960.408 192.639 1204.306 355.366 1022.296 399.067 938.551 235.391 1040.73 35.522" fill="none" stroke="#3f2f4d" stroke-miterlimit="10"/>
		<path d="M-457.031,1123.953L-642.956,760.409l152.469,363.544L-723.279,917.525l61.889,206.428" transform="translate(1683.686 -724.887)" fill="none" stroke="#3f2f4d" stroke-miterlimit="10"/>
	</g>
</svg>