<?xml version="1.0" encoding="utf-8"?>
<!-- Generator: Adobe Illustrator 17.0.0, SVG Export Plug-In . SVG Version: 6.00 Build 0)  -->
<!DOCTYPE svg PUBLIC "-//W3C//DTD SVG 1.1//EN" "http://www.w3.org/Graphics/SVG/1.1/DTD/svg11.dtd">
<svg version="1.1" id="Слой_1" xmlns="http://www.w3.org/2000/svg" xmlns:xlink="http://www.w3.org/1999/xlink" x="0px" y="0px"
	 width="46px" height="46px" viewBox="0 0 46 46" enable-background="new 0 0 46 46" xml:space="preserve">
<g>
	<path id="Behance" d="M36.4959641,15.7374268h-8.1079426v-2.0139523h8.1086178v2.0139513
		C36.4966393,15.7374258,36.4959641,15.7374258,36.4959641,15.7374268z M22.9903774,23.9959812
		c0.5231609,0.8103199,0.7845898,1.794199,0.7845898,2.9493046c0,1.1945286-0.2947559,2.2661285-0.8944283,3.2126942
		c-0.3815002,0.6263771-0.8551598,1.1554832-1.4242859,1.5814438c-0.640974,0.4926167-1.3998356,0.8304081-2.2722225,1.0108891
		c-0.8751698,0.1807823-1.8224125,0.2721138-2.8427792,0.2721138H7.273582V12.8881779h9.72369
		c2.4509716,0.0398731,4.1885967,0.7499847,5.2146835,2.1445541c0.615696,0.8553085,0.9207592,1.8816185,0.9207592,3.0745659
		c0,1.2309418-0.3087502,2.2158737-0.9304657,2.9642029c-0.3458385,0.4195671-0.8567371,0.8012161-1.5330696,1.1457043
		C21.6936092,22.5922337,22.4709034,23.1828022,22.9903774,23.9959812z M11.9170303,20.8260956h4.260519
		c0.8755455,0,1.5833263-0.1664143,2.1284523-0.4990883c0.5447521-0.3321476,0.8165646-0.9225655,0.8165646-1.7702751
		c0-0.9365597-0.3599072-1.5581989-1.0814533-1.8573952c-0.6202106-0.2078648-1.4137535-0.3149185-2.3766441-0.3149185h-3.7474384
		V20.8260956z M19.5328064,26.6576767c0-1.0458717-0.4274673-1.7689228-1.2806683-2.1568909
		c-0.4771194-0.2205048-1.1502914-0.3332024-2.0134258-0.3412514h-4.321682v5.3656712h4.2548008
		c0.8741169,0,1.5506744-0.1144276,2.038929-0.353138C19.0912704,28.7331676,19.5328064,27.897871,19.5328064,26.6576767z
		 M39.5042534,23.3821659c0.09795,0.6587276,0.1422615,1.6144695,0.1242828,2.8636932H29.1278515
		c0.0579281,1.4494114,0.5582924,2.463007,1.507267,3.043045c0.5722866,0.3637447,1.2661476,0.5413685,2.0786495,0.5413685
		c0.856739,0,1.5550385-0.2165928,2.0925674-0.6618137c0.2928772-0.2360001,0.5512238-0.569128,0.7745857-0.9894466h3.8488503
		c-0.1008072,0.85606-0.5642357,1.7243099-1.397049,2.6066265c-1.2902985,1.4023914-3.0999222,2.1055851-5.4239769,2.1055851
		c-1.9199104,0-3.6119461-0.5930519-5.0806179-1.7748661c-1.4637852-1.1859531-2.1989498-3.1093254-2.1989498-5.7774162
		c0-2.5019798,0.6600075-4.4170017,1.9844608-5.7499542c1.3293438-1.3354378,3.0449257-2.0001087,5.1596127-2.0001087
		c1.253437,0,2.3833389,0.2240391,3.3913689,0.6744518c1.0048676,0.4508629,1.83535,1.1604481,2.4894142,2.1356754
		C38.9459572,21.2578487,39.3266296,22.2509079,39.5042534,23.3821659z M35.7158127,23.7578716
		c-0.0705681-1.0022354-0.4051971-1.7607956-1.0077286-2.2792187c-0.5975647-0.5198498-1.3440895-0.7808285-2.2348289-0.7808285
		c-0.9694347,0-1.7179909,0.2789593-2.2498798,0.8272476c-0.5354996,0.5471592-0.8687,1.29105-1.0052452,2.2328758h6.4976826
		V23.7578716z"/>
</g>
</svg>
