<?xml version="1.0" encoding="utf-8"?>
<!-- Generator: Adobe Illustrator 17.0.0, SVG Export Plug-In . SVG Version: 6.00 Build 0)  -->
<!DOCTYPE svg PUBLIC "-//W3C//DTD SVG 1.1//EN" "http://www.w3.org/Graphics/SVG/1.1/DTD/svg11.dtd">
<svg version="1.1" id="Слой_1" xmlns="http://www.w3.org/2000/svg" xmlns:xlink="http://www.w3.org/1999/xlink" x="0px" y="0px"
	 width="46px" height="46px" viewBox="0 0 46 46" enable-background="new 0 0 46 46" xml:space="preserve">
<path fill="#010101" d="M31.7858944,8.6768799H14.2129698c-3.053298,0-5.5356646,2.4820824-5.5356646,5.5356646v5.8469534
	v11.7268219c0,3.0544357,2.4823666,5.5368004,5.5356646,5.5368004h17.5740585c3.052166,0,5.5356636-2.4823647,5.5356636-5.5368004
	V20.0594978v-5.8469534C37.3226929,11.1589622,34.8391953,8.6768799,31.7858944,8.6768799z M33.3766747,11.9776201
	l0.6316566-0.0019855v0.6291037v4.225811l-4.8395901,0.0164585l-0.0161743-4.8560505L33.3766747,11.9776201z M18.9129505,20.0586472
	c0.9179745-1.2701283,2.4060326-2.1021233,4.089035-2.1021233c1.6818695,0,3.1710606,0.8331299,4.0870514,2.1029739
	c0.5944843,0.8277378,0.9537296,1.8413429,0.9537296,2.938942c0,2.7803173-2.2652855,5.0416317-5.0439014,5.0416317
	c-2.7794666,0-5.0424824-2.2621651-5.0396461-5.0427666C17.9603539,21.8997059,18.3164787,20.886385,18.9129505,20.0586472z
	 M34.529892,31.7863197c0,1.515583-1.2326698,2.743145-2.7451324,2.743145H14.2118349
	c-1.5144472,0-2.7448473-1.227562-2.7448473-2.743145V20.0594978h4.275753
	c-0.3691769,0.906908-0.5763245,1.9000816-0.5763245,2.938942c0,4.3183174,3.5129967,7.8344345,7.8335838,7.8344345
	c4.3203049,0,7.8344345-3.5161171,7.8344345-7.8344345c0-1.0388603-0.2099838-2.0320339-0.582283-2.938942h4.2777405V31.7863197z"/>
</svg>
