<?xml version="1.0" encoding="utf-8"?>
<!-- Generator: Adobe Illustrator 17.0.0, SVG Export Plug-In . SVG Version: 6.00 Build 0)  -->
<!DOCTYPE svg PUBLIC "-//W3C//DTD SVG 1.1//EN" "http://www.w3.org/Graphics/SVG/1.1/DTD/svg11.dtd">
<svg version="1.1" id="Слой_1" xmlns="http://www.w3.org/2000/svg" xmlns:xlink="http://www.w3.org/1999/xlink" x="0px" y="0px"
	 width="46px" height="46px" viewBox="0 0 46 46" enable-background="new 0 0 46 46" xml:space="preserve">
<g>
	<g>
		<path fill="#060507" d="M19.3240204,27.4541817c-0.724617,0.6506348-2.1161175,1.95294-4.4327478,1.95294
			c-2.7325258,0-5.3647947-2.3951092-5.3647947-6.2273521c0-4.9101791,3.1466913-6.4938965,5.5625429-6.4938965
			c3.4847994,0,4.2477922,2.1026344,5.197814,5.0170059l1.2680798,3.9923096
			c1.2666969,3.8720016,3.6427898,6.9848118,10.4938107,6.9848118c4.9108696,0,8.2369881-1.516304,8.2369881-5.5079193
			c0-3.2338123-1.822258-4.910181-5.2275467-5.7091255l-2.5340843-0.5583305
			c-1.7427464-0.3992996-2.2571697-1.1180401-2.2571697-2.3159409c0-1.3572731,1.0689507-2.1551819,2.811697-2.1551819
			c1.9007378,0,2.9306183,0.7187386,3.0893021,2.434864l3.959465-0.4788132
			c-0.3170204-3.5930071-2.7722816-5.0695534-6.811264-5.0695534c-3.5639668,0-7.048769,1.357275-7.048769,5.7084351
			c0,2.7145481,1.3064556,4.4306755,4.5928135,5.22962l2.6934624,0.6381874
			c2.0196609,0.4795074,2.6920776,1.3178635,2.6920776,2.4756603c0,1.4765453-1.4253807,2.0753231-4.1181526,2.0753231
			c-3.9992218,0-6.0081654-2.1157703-6.9588795-5.0301418l-1.3071461-3.991272
			c-1.6621933-5.189518-3.6244678-7.1058121-8.8914242-7.1058121c-4.6965294,0-9.2558088,3.7122803-9.2558088,10.019146
			c0,6.067976,4.3774338,9.3408546,8.9785461,9.3408546c3.3275003,0,5.0176973-1.1695538,5.8425722-1.7690201L19.3240204,27.4541817
			z"/>
	</g>
</g>
</svg>
