<?xml version="1.0" encoding="utf-8"?>
<!-- Generator: Adobe Illustrator 17.0.0, SVG Export Plug-In . SVG Version: 6.00 Build 0)  -->
<!DOCTYPE svg PUBLIC "-//W3C//DTD SVG 1.1//EN" "http://www.w3.org/Graphics/SVG/1.1/DTD/svg11.dtd">
<svg version="1.1" id="Слой_1" xmlns="http://www.w3.org/2000/svg" xmlns:xlink="http://www.w3.org/1999/xlink" x="0px" y="0px"
	 width="46px" height="46px" viewBox="0 0 46 46" enable-background="new 0 0 46 46" xml:space="preserve">
<g>
	<g>
		<path d="M40,12.4626637c-1.2117615,0.5369406-2.5119591,0.9010868-3.8780632,1.0636587
			c1.3948822-0.8352938,2.4626274-2.1601877,2.9686928-3.7340508c-1.3084335,0.7735357-2.7527008,1.3352222-4.2915993,1.6397095
			c-1.2323112-1.3146191-2.9851513-2.1334515-4.9293499-2.1334515c-3.729908,0-6.7541714,3.0242634-6.7541714,6.7521276
			c0,0.5287094,0.05966,1.0451012,0.1748905,1.5388966c-5.6123466-0.2818928-10.5889835-2.9707899-13.9197779-7.0566692
			c-0.5822372,0.9957685-0.9134607,2.1560459-0.9134607,3.3945971c0,2.3433104,1.1932545,4.4109163,3.0037136,5.6205778
			c-1.1068573-0.0370121-2.1478691-0.3414993-3.0592308-0.8476124v0.0843506c0,3.2711353,2.3288927,6.0011883,5.4169054,6.6225338
			c-0.5657749,0.1522427-1.1623755,0.2365971-1.7795801,0.2365971c-0.4361258,0-0.8578882-0.0431995-1.2714205-0.1255074
			c0.8599329,2.6848087,3.3534431,4.6371822,6.3077707,4.6907101c-2.3103867,1.8104572-5.2235613,2.8864384-8.3876953,2.8864384
			c-0.5451708,0-1.0821652-0.0329247-1.6108751-0.0925865c2.989296,1.9195061,6.5381813,3.0386848,10.3524427,3.0386848
			c12.4241352,0,19.215374-10.290741,19.215374-19.2153759l-0.0226517-0.8743496
			C37.9488564,15.0055046,39.0968132,13.8163919,40,12.4626637z"/>
	</g>
</g>
</svg>
